<svg xmlns="http://www.w3.org/2000/svg" width="8" height="4" viewBox="0 0 8 4">
  <path id="drop_arrow" data-name="drop arrow" d="M7.815,3.857a.669.669,0,0,1-.845-.014L4,1.254l-.6.525V1.773L1.026,3.84A.651.651,0,0,1,.6,3.993.564.564,0,0,1,0,3.477a.488.488,0,0,1,.189-.369L3.585.145,3.591.14A.582.582,0,0,1,3.734.051h.01L3.778.038A.7.7,0,0,1,3.989,0h.023A.684.684,0,0,1,4.23.043l.036.013h.009a.547.547,0,0,1,.142.089l.006.005,3.4,2.963.014.012a.468.468,0,0,1-.018.731" transform="translate(0 0)"/>
</svg>
