<svg xmlns="http://www.w3.org/2000/svg" width="21.5" height="17.5" viewBox="0 0 21.5 17.5">
  <path id="mail" d="M22.25,6.754V18.246A2.281,2.281,0,0,1,19.942,20.5H4.558A2.281,2.281,0,0,1,2.25,18.246V6.754m20,0A2.281,2.281,0,0,0,19.942,4.5H4.558A2.281,2.281,0,0,0,2.25,6.754m20,0V7a2.242,2.242,0,0,1-1.1,1.919L13.46,13.538a2.355,2.355,0,0,1-2.421,0L3.347,8.917A2.242,2.242,0,0,1,2.25,7V6.754" transform="translate(-1.5 -3.75)" fill="none" stroke="#000" stroke-linecap="round" stroke-linejoin="round" stroke-width="1.5"/>
</svg>
