<svg xmlns="http://www.w3.org/2000/svg" width="20" height="18" viewBox="0 0 21.5 15.5"><path d="M2.25,7.167A1.161,1.161,0,0,1,3.4,6H9.558a1.161,1.161,0,0,1,1.154,1.167v3.889a1.161,1.161,0,0,1-1.154,1.167H3.4A1.16,1.16,0,0,1,2.25,11.056ZM14.558,8.722a1.161,1.161,0,0,1,1.154-1.167H21.1A1.161,1.161,0,0,1,22.25,8.722v8.556A1.161,1.161,0,0,1,21.1,18.444H15.712a1.16,1.16,0,0,1-1.154-1.167ZM3.788,16.5a1.161,1.161,0,0,1,1.154-1.167h5.385A1.161,1.161,0,0,1,11.481,16.5v2.333A1.161,1.161,0,0,1,10.327,20H4.942a1.16,1.16,0,0,1-1.154-1.167Z" transform="translate(-1.5 -5.25)" fill="none" stroke="currentColor" stroke-linecap="round" stroke-linejoin="round" stroke-width="1.5"/></svg>