<svg xmlns="http://www.w3.org/2000/svg" width="18" height="20" viewBox="0 0 19.503 21.5"><path d="M15.927,10.712V6.1a3.8,3.8,0,1,0-7.6,0v4.615M19.837,8.667l1.281,12.308a1.148,1.148,0,0,1-1.135,1.275H4.266a1.135,1.135,0,0,1-.849-.381,1.162,1.162,0,0,1-.287-.893L4.412,8.667A1.146,1.146,0,0,1,5.546,7.635H18.7A1.146,1.146,0,0,1,19.837,8.667ZM8.7,10.712a.38.38,0,1,1-.38-.385A.382.382,0,0,1,8.7,10.712Zm7.6,0a.38.38,0,1,1-.38-.385A.382.382,0,0,1,16.307,10.712Z" transform="translate(-2.372 -1.5)" fill="none" stroke="currentColor" stroke-linecap="round" stroke-linejoin="round" stroke-width="1.5"/></svg>