<svg xmlns="http://www.w3.org/2000/svg" width="20" height="20" viewBox="0 0 20 20">
  <path id="notifications" d="M10,20a3.88,3.88,0,0,1-3.694-2.663,3.778,3.778,0,0,1-.174-1.474,25.944,25.944,0,0,1-5.053-1.28.749.749,0,0,1-.3-1.211A8.385,8.385,0,0,0,3,7.689V6.917A7,7,0,0,1,17,6.917v.771a8.385,8.385,0,0,0,2.211,5.684.75.75,0,0,1-.3,1.211,25.925,25.925,0,0,1-5.051,1.28,3.769,3.769,0,0,1-.412,2.042,3.839,3.839,0,0,1-2.274,1.913A3.917,3.917,0,0,1,10,20M7.626,16.042a2.285,2.285,0,0,0,.11.833,2.388,2.388,0,0,0,2.991,1.512,2.349,2.349,0,0,0,1.394-1.168,2.3,2.3,0,0,0,.253-1.177,26.7,26.7,0,0,1-4.748,0m-.5-1.561a24.93,24.93,0,0,0,5.753,0l.03,0a24.445,24.445,0,0,0,4.491-.963A9.861,9.861,0,0,1,15.5,7.688V6.917a5.5,5.5,0,0,0-11.006,0v.771A9.862,9.862,0,0,1,2.6,13.515a24.437,24.437,0,0,0,4.492.963.259.259,0,0,1,.029,0M19.249,6.125a.749.749,0,0,1-.738-.623,8.412,8.412,0,0,0-2.075-4.248A.75.75,0,1,1,17.545.245a9.9,9.9,0,0,1,2.444,5,.751.751,0,0,1-.613.866.785.785,0,0,1-.127.01m-18.5,0a.785.785,0,0,1-.127-.01.751.751,0,0,1-.613-.866,9.9,9.9,0,0,1,2.444-5A.75.75,0,1,1,3.564,1.254,8.412,8.412,0,0,0,1.489,5.5a.749.749,0,0,1-.738.623" transform="translate(0 0)"/>
</svg>
