<svg xmlns="http://www.w3.org/2000/svg" width="24" height="20" viewBox="0 0 24 20">
  <path id="condition" d="M-137.091,19.889l-.032-.021a36.833,36.833,0,0,1-8.332-7.55h-2.663a.661.661,0,0,1-.663-.657.661.661,0,0,1,.663-.657h1.761c-1.551-2.509-2-4.833-1.343-6.918a5.482,5.482,0,0,1,5-4.07c.138-.009.278-.014.418-.014a6.948,6.948,0,0,1,3.353.89,6.907,6.907,0,0,1,2.211,1.919A6.9,6.9,0,0,1-134.511.89,6.946,6.946,0,0,1-131.16,0c.14,0,.282,0,.42.014a5.482,5.482,0,0,1,5,4.07,7.334,7.334,0,0,1-.436,5.19c1.169-.012,1.4.295,1.4.657s-.292.667-2.06.657a24.391,24.391,0,0,1-5.093,5.9,42.84,42.84,0,0,1-4.387,3.377l-.031.021a.667.667,0,0,1-.369.111A.665.665,0,0,1-137.091,19.889Zm.369-1.342c1.6-1.1,5.974-4.29,8.352-7.958h-3.1l-.664,1.712a.667.667,0,0,1-.666.42.658.658,0,0,1-.6-.507l-1.01-4.288-1.566,5.769a.666.666,0,0,1-.581.484h-.061a.666.666,0,0,1-.6-.377l-1.554-3.262-.541,1.358a.658.658,0,0,1-.617.417h-3.866A36.573,36.573,0,0,0-136.722,18.547Zm-2.1-10.316a.667.667,0,0,1,.6.377l1.437,3.016L-135,5.057a.67.67,0,0,1,.645-.486h.006a.662.662,0,0,1,.636.507l1.12,4.755.053-.137a.668.668,0,0,1,.62-.422h4.3a6.381,6.381,0,0,0,.608-4.8,4.215,4.215,0,0,0-3.819-3.152c-.11-.007-.222-.011-.333-.011a5.621,5.621,0,0,0-4.958,3.052.664.664,0,0,1-.6.378.666.666,0,0,1-.6-.378,5.62,5.62,0,0,0-4.958-3.052c-.108,0-.22,0-.333.011a4.213,4.213,0,0,0-3.818,3.152c-.6,1.9-.051,4.095,1.637,6.524h4.42l.938-2.356a.662.662,0,0,1,.6-.416Z" transform="translate(148.781)"/>
</svg>
