<svg xmlns="http://www.w3.org/2000/svg" width="21.5" height="15.5" viewBox="0 0 21.5 15.5">
  <path id="list" d="M9.153,6.842H23.375M9.153,13.375H23.375M9.153,19.908H23.375M3.819,6.842h.008v.01H3.819Zm.444,0a.445.445,0,1,1-.444-.467A.456.456,0,0,1,4.264,6.842Zm-.444,6.533h.008v.01H3.819Zm.444,0a.445.445,0,1,1-.444-.467A.456.456,0,0,1,4.264,13.375Zm-.444,6.533h.008v.01H3.819Zm.444,0a.445.445,0,1,1-.444-.467A.456.456,0,0,1,4.264,19.908Z" transform="translate(-2.625 -5.625)" fill="none" stroke="#000" stroke-linecap="round" stroke-linejoin="round" stroke-width="1.5"/>
</svg>
