<svg xmlns="http://www.w3.org/2000/svg" width="17.5" height="21.5" viewBox="0 0 17.5 21.5">
  <path id="my_plan" data-name="my plan" d="M20.5,14.558V11.865A3.533,3.533,0,0,0,16.9,8.4H15.3A1.178,1.178,0,0,1,14.1,7.25V5.712A3.533,3.533,0,0,0,10.5,2.25h-2m0,13.077h8M8.5,18.4h4M10.9,2.25H5.7A1.178,1.178,0,0,0,4.5,3.4V21.1A1.178,1.178,0,0,0,5.7,22.25H19.3A1.178,1.178,0,0,0,20.5,21.1V11.481A9.421,9.421,0,0,0,10.9,2.25Z" transform="translate(-3.75 -1.5)" fill="none" stroke="#000" stroke-linecap="round" stroke-linejoin="round" stroke-width="1.5"/>
</svg>
