<svg xmlns="http://www.w3.org/2000/svg" width="21.502" height="19.5" viewBox="0 0 21.502 19.5">
  <path id="users" d="M15.326,19.128a9.885,9.885,0,0,0,6.919-.58,4.131,4.131,0,0,0-2.9-4.09,4.289,4.289,0,0,0-4.828,1.6m.807,3.073v0a6.224,6.224,0,0,0-.806-3.07m.806,3.073v.106a12.986,12.986,0,0,1-13.076,0v-.109a6.406,6.406,0,0,1,4.913-6.178,6.6,6.6,0,0,1,7.357,3.108m-2.27-9.68a3.463,3.463,0,0,1-6.923,0,3.463,3.463,0,0,1,6.923,0Zm8.461,2.25A2.693,2.693,0,1,1,18.019,6,2.659,2.659,0,0,1,20.711,8.625Z" transform="translate(-1.499 -2.25)" fill="none" stroke="#000" stroke-linecap="round" stroke-linejoin="round" stroke-width="1.5"/>
</svg>
