<svg xmlns="http://www.w3.org/2000/svg" width="21.5" height="19.5" viewBox="0 0 21.5 19.5">
  <path id="archive" d="M20.712,7.841l-.641,11.6a2.374,2.374,0,0,1-2.3,2.311H6.734a2.374,2.374,0,0,1-2.3-2.311l-.641-11.6m6.41,4.091h4.1M3.4,7.841H21.1A1.193,1.193,0,0,0,22.25,6.614V4.977A1.193,1.193,0,0,0,21.1,3.75H3.4A1.193,1.193,0,0,0,2.25,4.977V6.614A1.193,1.193,0,0,0,3.4,7.841Z" transform="translate(-1.5 -3)" fill="none" stroke="#000" stroke-linecap="round" stroke-linejoin="round" stroke-width="1.5"/>
</svg>
