<svg xmlns="http://www.w3.org/2000/svg" xmlns:xlink="http://www.w3.org/1999/xlink" width="27" height="30" viewBox="0 0 27 30">
  <defs>
    <linearGradient id="linear-gradient" x1="0.105" y1="-0.823" x2="0.105" y2="-1.832" gradientUnits="objectBoundingBox">
      <stop offset="0" stop-color="#88c7fc"/>
      <stop offset="1" stop-color="#1b75bb"/>
    </linearGradient>
    <linearGradient id="linear-gradient-2" x1="0.09" y1="-0.88" x2="0.09" y2="-1.889" xlink:href="#linear-gradient"/>
    <linearGradient id="linear-gradient-3" x1="-0.599" y1="-2.944" x2="-1.341" y2="-3.687" gradientUnits="objectBoundingBox">
      <stop offset="0" stop-color="#6bb0eb"/>
      <stop offset="1" stop-color="#0056a3"/>
    </linearGradient>
    <linearGradient id="linear-gradient-4" x1="-1.008" y1="-3.45" x2="-1.426" y2="-3.87" xlink:href="#linear-gradient"/>
  </defs>
  <g id="DOCX" transform="translate(0 0)">
    <g id="File">
      <path id="Path_138" data-name="Path 138" d="M355.6,313.353l-7.455-7.6H331.068a2.382,2.382,0,0,0-2.355,2.407v25.066a2.382,2.382,0,0,0,2.355,2.407h22.173a2.382,2.382,0,0,0,2.355-2.407Z" transform="translate(-328.654 -305.693)" fill="url(#linear-gradient)"/>
      <path id="Path_139" data-name="Path 139" d="M354.72,336.619H332.547a1.907,1.907,0,0,1-1.884-1.925V309.628a1.907,1.907,0,0,1,1.884-1.925h16.877l7.179,7.319v19.674a1.907,1.907,0,0,1-1.883,1.924Z" transform="translate(-330.133 -307.161)" fill="url(#linear-gradient-2)"/>
      <path id="Path_140" data-name="Path 140" d="M330.853,334.952V309.886a1.907,1.907,0,0,1,1.884-1.925c.162,0,16.689-.259,16.689-.259H332.548a1.907,1.907,0,0,0-1.884,1.925v25.066a1.932,1.932,0,0,0,.474,1.263A1.932,1.932,0,0,1,330.853,334.952Z" transform="translate(-330.134 -307.161)" fill="#e2f1fe"/>
      <path id="Path_141" data-name="Path 141" d="M414.938,313.353l-7.455-7.6h-.053c-.128,1.476-.47,5.412-.47,5.412a2.692,2.692,0,0,0,2.661,2.721Z" transform="translate(-387.996 -305.693)" fill="url(#linear-gradient-3)"/>
      <path id="Path_142" data-name="Path 142" d="M409.124,305.753v5.193a2.381,2.381,0,0,0,2.355,2.407h5.1Z" transform="translate(-389.637 -305.693)" fill="url(#linear-gradient-4)"/>
      <path id="Path_143" data-name="Path 143" d="M330.882,335.509a2.441,2.441,0,0,1-2.414-2.467h0V307.976a2.441,2.441,0,0,1,2.414-2.467h17.1l7.473,7.618-.041.043.041-.043.017.017v19.9a2.44,2.44,0,0,1-2.414,2.467H330.882Zm-2.3-27.533v25.066a2.326,2.326,0,0,0,2.3,2.347h22.172a2.325,2.325,0,0,0,2.3-2.347h0V313.194l-7.422-7.565H330.882a2.327,2.327,0,0,0-2.3,2.347Z" transform="translate(-328.468 -305.509)" fill="#1b75bb"/>
      <path id="Path_144" data-name="Path 144" d="M347.2,333.857h10.27v-.481H347.2Zm10.269-1.912H347.2v.481h10.27Zm-10.27-.955h10.27v-.481H347.2Zm-1.034,2.386h-.85v.481h.85Zm0-1.431h-.85v.481h.85Zm0-1.436h-.851v.481h.851Zm4.026,10.506h.471v-1.18h-.471Zm1.542-.35h.683v-.481h-.683Zm-3.3,0h.683v-.481h-.683Zm-4.063-11.1h10.269v-.481H344.372Zm2.826,8.155v.481h10.271v-.481Zm0-.955h10.27v-.481H347.2Zm-1.885,1.436h.851v-.481h-.851Zm0-1.436h.851v-.481h-.851Zm9.328-1.906h-10.27v.482h10.27v-.482Zm-1.884-7.929h-10.27v.964h10.27Z" transform="translate(-339.101 -321.642)" fill="#fff"/>
    </g>
    <path id="DOCX-2" data-name="DOCX" d="M-15.952-1.107h-.828v-.505h.8a1.184,1.184,0,0,0,.578-.127.8.8,0,0,0,.346-.38,1.512,1.512,0,0,0,.115-.628,1.485,1.485,0,0,0-.115-.622.808.808,0,0,0-.342-.378,1.138,1.138,0,0,0-.565-.127H-16.8v-.505h.866a1.687,1.687,0,0,1,.838.2,1.329,1.329,0,0,1,.539.563,1.881,1.881,0,0,1,.189.873,1.9,1.9,0,0,1-.189.879A1.325,1.325,0,0,1-15.1-1.3,1.735,1.735,0,0,1-15.952-1.107Zm-.521-3.274v3.274h-.587V-4.381Zm4.041,3.32a1.488,1.488,0,0,1-.772-.2,1.423,1.423,0,0,1-.539-.579,1.913,1.913,0,0,1-.2-.9,1.923,1.923,0,0,1,.2-.9,1.423,1.423,0,0,1,.539-.579,1.488,1.488,0,0,1,.772-.2,1.482,1.482,0,0,1,.771.2,1.418,1.418,0,0,1,.537.579,1.932,1.932,0,0,1,.2.9,1.922,1.922,0,0,1-.2.9,1.418,1.418,0,0,1-.537.579A1.482,1.482,0,0,1-12.432-1.061Zm0-.525a.859.859,0,0,0,.474-.133.884.884,0,0,0,.325-.391,1.52,1.52,0,0,0,.118-.632,1.534,1.534,0,0,0-.118-.635.883.883,0,0,0-.325-.392.859.859,0,0,0-.474-.133.858.858,0,0,0-.476.134.9.9,0,0,0-.326.392,1.514,1.514,0,0,0-.119.634,1.5,1.5,0,0,0,.119.631.9.9,0,0,0,.326.391A.858.858,0,0,0-12.432-1.586ZM-9-1.061a1.492,1.492,0,0,1-.775-.2,1.408,1.408,0,0,1-.537-.579,1.931,1.931,0,0,1-.2-.9,1.932,1.932,0,0,1,.2-.9,1.416,1.416,0,0,1,.538-.579A1.488,1.488,0,0,1-9-4.427a1.6,1.6,0,0,1,.508.078,1.333,1.333,0,0,1,.419.225,1.218,1.218,0,0,1,.3.359,1.389,1.389,0,0,1,.158.48H-8.2a.791.791,0,0,0-.1-.261.7.7,0,0,0-.174-.194.746.746,0,0,0-.235-.121.939.939,0,0,0-.28-.041.865.865,0,0,0-.484.137.9.9,0,0,0-.326.4,1.522,1.522,0,0,0-.116.626,1.516,1.516,0,0,0,.118.628.887.887,0,0,0,.326.393.875.875,0,0,0,.483.134.928.928,0,0,0,.279-.041.761.761,0,0,0,.234-.12A.711.711,0,0,0-8.3-1.941.774.774,0,0,0-8.2-2.2h.591a1.322,1.322,0,0,1-.148.45,1.307,1.307,0,0,1-.293.363,1.322,1.322,0,0,1-.42.243A1.538,1.538,0,0,1-9-1.061Zm1.63-.046L-6.038-3v.442L-7.273-4.381H-6.6l.4.6q.1.143.163.259t.123.226q.057.11.125.233H-5.93q.07-.123.127-.232t.125-.226q.068-.118.163-.26l.406-.6h.659L-5.667-2.588V-3.01l1.3,1.9h-.686l-.5-.736q-.086-.127-.145-.224t-.11-.188l-.114-.2h.1l-.113.2q-.052.091-.112.188t-.148.226l-.505.736Z" transform="translate(28.265 27.357)" fill="#fff"/>
  </g>
</svg>
