<svg xmlns="http://www.w3.org/2000/svg" width="20" height="18" viewBox="0 0 21.5 19.5">
  <path id="edit" d="M-898,710.879h0Zm-8.889-4.206L-893,693.532a2.428,2.428,0,0,1,1.667-.654,2.465,2.465,0,0,1,.9.17,2.348,2.348,0,0,1,.764.484,2.206,2.206,0,0,1,.511.723,2.12,2.12,0,0,1,.18.854,2.117,2.117,0,0,1-.18.854,2.219,2.219,0,0,1-.511.724l-13.888,13.141L-908,710.879Z" transform="translate(908.75 -692.129)" fill="none" stroke="#000" stroke-linecap="round" stroke-linejoin="round" stroke-width="1.5"/>
</svg>
