<svg id="FB" xmlns="http://www.w3.org/2000/svg" width="40" height="40" viewBox="0 0 40 40">
  <g id="pad" fill="none" stroke="#000" stroke-width="1" opacity="0.302">
    <circle cx="20" cy="20" r="20" stroke="none"/>
    <circle cx="20" cy="20" r="19.5" fill="none"/>
  </g>
  <path id="icon_FB" data-name="icon | FB" d="M102,791l1-3H99l.008-2.287c0-.886,1.058-1.75,2.508-1.75h1.472v-2.756a18.728,18.728,0,0,0-2.613-.218,4,4,0,0,0-4.357,4.357L96,788H93v3h3v7.833a8.227,8.227,0,0,0,1.493.181A8.375,8.375,0,0,0,99,798.833V791Z" transform="translate(-78 -770)"/>
</svg>
