<svg xmlns="http://www.w3.org/2000/svg" width="21.561" height="21.5" viewBox="0 0 21.561 21.5">
  <path id="first-aid" d="M12.824,20.75H8.7a.675.675,0,0,1-.683-.668l0-4.708L3.819,17.73a.693.693,0,0,1-.925-.244L.831,14a.654.654,0,0,1,.252-.889l4.193-2.363L1.082,8.386A.654.654,0,0,1,.847,7.47L2.878,4.041a.691.691,0,0,1,.94-.27L8.012,6.128l0-4.71A.672.672,0,0,1,8.7.75h4.1a.692.692,0,0,1,.69.753V6.13l4.222-2.372a.687.687,0,0,1,.913.283l2.012,3.4a.671.671,0,0,1-.272.982l-4.135,2.329L20.388,13.1a.661.661,0,0,1,.263.937l-2.028,3.425a.7.7,0,0,1-.969.258L13.487,15.37l0,4.711A.672.672,0,0,1,12.824,20.75Z" transform="translate(0.057)" fill="none" stroke="#fff" stroke-width="1.5"/>
</svg>
