<svg xmlns="http://www.w3.org/2000/svg" xmlns:xlink="http://www.w3.org/1999/xlink" width="27" height="30" viewBox="0 0 27 30">
  <defs>
    <linearGradient id="linear-gradient" x1="0.105" y1="1.723" x2="0.105" y2="0.713" gradientUnits="objectBoundingBox">
      <stop offset="0" stop-color="#8bc861"/>
      <stop offset="1" stop-color="#438b02"/>
    </linearGradient>
    <linearGradient id="linear-gradient-2" x1="0.09" y1="1.75" x2="0.09" y2="0.741" xlink:href="#linear-gradient"/>
    <linearGradient id="linear-gradient-3" x1="-0.6" y1="6.408" x2="-1.341" y2="5.665" gradientUnits="objectBoundingBox">
      <stop offset="0" stop-color="#6eb240"/>
      <stop offset="1" stop-color="#1f6e00"/>
    </linearGradient>
    <linearGradient id="linear-gradient-4" x1="-0.929" y1="6.635" x2="-1.46" y2="6.103" xlink:href="#linear-gradient"/>
  </defs>
  <g id="GIF" transform="translate(0 0)">
    <g id="File" transform="translate(0 0)">
      <path id="Path_100" data-name="Path 100" d="M355.6,159.34l-7.455-7.6H331.068a2.382,2.382,0,0,0-2.355,2.407v25.066a2.381,2.381,0,0,0,2.355,2.407h22.173a2.381,2.381,0,0,0,2.355-2.407Z" transform="translate(-328.654 -151.68)" fill="url(#linear-gradient)"/>
      <path id="Path_101" data-name="Path 101" d="M354.72,182.607H332.547a1.907,1.907,0,0,1-1.884-1.925V155.616a1.907,1.907,0,0,1,1.884-1.925h16.877l7.179,7.319v19.673a1.907,1.907,0,0,1-1.883,1.925Z" transform="translate(-330.133 -153.148)" fill="url(#linear-gradient-2)"/>
      <path id="Path_102" data-name="Path 102" d="M330.853,180.94V155.874a1.907,1.907,0,0,1,1.884-1.925c.162,0,16.689-.259,16.689-.259H332.548a1.907,1.907,0,0,0-1.884,1.925v25.066a1.932,1.932,0,0,0,.474,1.264A1.935,1.935,0,0,1,330.853,180.94Z" transform="translate(-330.133 -153.149)" fill="#e6ef8e"/>
      <path id="Path_103" data-name="Path 103" d="M414.938,159.34l-7.455-7.6h-.053c-.128,1.476-.47,5.412-.47,5.412a2.691,2.691,0,0,0,2.661,2.72Z" transform="translate(-387.996 -151.68)" fill="url(#linear-gradient-3)"/>
      <path id="Path_104" data-name="Path 104" d="M409.124,151.741v5.193a2.381,2.381,0,0,0,2.355,2.407h5.1Z" transform="translate(-389.637 -151.681)" fill="url(#linear-gradient-4)"/>
      <path id="Path_105" data-name="Path 105" d="M330.882,181.5a2.441,2.441,0,0,1-2.414-2.467h0V153.964a2.441,2.441,0,0,1,2.414-2.467h17.1l7.473,7.618-.041.043.041-.043.017.017v19.9a2.441,2.441,0,0,1-2.414,2.467H330.882Zm-2.3-27.533V179.03a2.325,2.325,0,0,0,2.3,2.347h22.172a2.324,2.324,0,0,0,2.3-2.347h0V159.182l-7.422-7.565H330.882a2.326,2.326,0,0,0-2.3,2.347Z" transform="translate(-328.468 -151.497)" fill="#438b02"/>
      <rect id="Rectangle_1" data-name="Rectangle 1" width="1.656" height="1.69" transform="translate(15.126 12.047)" fill="#fff"/>
      <rect id="Rectangle_2" data-name="Rectangle 2" width="1.658" height="1.69" transform="translate(4.49 9.875)" fill="#fff"/>
      <rect id="Rectangle_3" data-name="Rectangle 3" width="1.654" height="1.69" transform="translate(6.618 9.875)" fill="#fff"/>
      <rect id="Rectangle_4" data-name="Rectangle 4" width="1.656" height="1.69" transform="translate(15.126 9.875)" fill="#fff"/>
      <rect id="Rectangle_5" data-name="Rectangle 5" width="1.654" height="1.69" transform="translate(13 9.875)" fill="#fff"/>
      <rect id="Rectangle_6" data-name="Rectangle 6" width="1.657" height="1.697" transform="translate(10.872 7.696)" fill="#fff"/>
      <rect id="Rectangle_7" data-name="Rectangle 7" width="1.657" height="1.697" transform="translate(8.744 7.696)" fill="#fff"/>
      <rect id="Rectangle_8" data-name="Rectangle 8" width="1.657" height="1.69" transform="translate(8.744 9.875)" fill="#fff"/>
      <rect id="Rectangle_9" data-name="Rectangle 9" width="1.654" height="1.69" transform="translate(6.618 12.047)" fill="#fff"/>
      <rect id="Rectangle_10" data-name="Rectangle 10" width="1.656" height="1.697" transform="translate(15.126 7.696)" fill="#fff"/>
      <rect id="Rectangle_11" data-name="Rectangle 11" width="1.654" height="1.697" transform="translate(13 7.696)" fill="#fff"/>
      <rect id="Rectangle_12" data-name="Rectangle 12" width="1.654" height="1.689" transform="translate(13 5.525)" fill="#fff"/>
      <rect id="Rectangle_13" data-name="Rectangle 13" width="1.657" height="1.689" transform="translate(10.872 5.525)" fill="#fff"/>
      <rect id="Rectangle_14" data-name="Rectangle 14" width="1.657" height="1.689" transform="translate(8.744 5.525)" fill="#fff"/>
      <rect id="Rectangle_15" data-name="Rectangle 15" width="1.654" height="1.689" transform="translate(6.618 5.525)" fill="#fff"/>
      <rect id="Rectangle_16" data-name="Rectangle 16" width="1.658" height="1.697" transform="translate(4.49 7.696)" fill="#fff"/>
      <rect id="Rectangle_17" data-name="Rectangle 17" width="1.658" height="1.69" transform="translate(4.49 12.047)" fill="#fff"/>
      <rect id="Rectangle_18" data-name="Rectangle 18" width="1.658" height="1.697" transform="translate(4.49 14.218)" fill="#fff"/>
      <rect id="Rectangle_19" data-name="Rectangle 19" width="1.654" height="1.69" transform="translate(6.618 16.397)" fill="#fff"/>
      <rect id="Rectangle_20" data-name="Rectangle 20" width="1.657" height="1.69" transform="translate(8.744 16.397)" fill="#fff"/>
      <rect id="Rectangle_21" data-name="Rectangle 21" width="1.657" height="1.69" transform="translate(10.872 16.397)" fill="#fff"/>
      <rect id="Rectangle_22" data-name="Rectangle 22" width="1.654" height="1.69" transform="translate(13 16.397)" fill="#fff"/>
      <rect id="Rectangle_23" data-name="Rectangle 23" width="1.656" height="1.697" transform="translate(15.126 14.218)" fill="#fff"/>
      <rect id="Rectangle_24" data-name="Rectangle 24" width="1.656" height="1.689" transform="translate(15.126 5.525)" fill="#fff"/>
      <rect id="Rectangle_25" data-name="Rectangle 25" width="1.658" height="1.689" transform="translate(4.49 5.525)" fill="#fff"/>
      <rect id="Rectangle_26" data-name="Rectangle 26" width="1.658" height="1.69" transform="translate(4.49 16.397)" fill="#fff"/>
      <rect id="Rectangle_27" data-name="Rectangle 27" width="1.656" height="1.69" transform="translate(15.126 16.397)" fill="#fff"/>
    </g>
    <path id="GIF-2" data-name="GIF" d="M-7.8-1.061A1.505,1.505,0,0,1-8.6-1.267,1.416,1.416,0,0,1-9.13-1.85a1.932,1.932,0,0,1-.192-.889,1.933,1.933,0,0,1,.2-.9,1.424,1.424,0,0,1,.537-.581,1.476,1.476,0,0,1,.771-.2,1.565,1.565,0,0,1,.506.08,1.38,1.38,0,0,1,.421.227,1.264,1.264,0,0,1,.3.348,1.234,1.234,0,0,1,.156.445h-.6a.848.848,0,0,0-.107-.24A.725.725,0,0,0-7.3-3.747a.734.734,0,0,0-.226-.115.927.927,0,0,0-.278-.04.857.857,0,0,0-.479.136.91.91,0,0,0-.327.394,1.5,1.5,0,0,0-.119.627,1.5,1.5,0,0,0,.118.625.9.9,0,0,0,.328.4.878.878,0,0,0,.49.137.925.925,0,0,0,.435-.1.7.7,0,0,0,.287-.275.824.824,0,0,0,.1-.417l.138.018h-.9v-.459H-6.4v.393a1.4,1.4,0,0,1-.18.722,1.233,1.233,0,0,1-.5.474A1.519,1.519,0,0,1-7.8-1.061Zm2.527-3.32v3.274h-.587V-4.381Zm.631,3.274V-4.381h2.12v.5H-4.058v.962h1.393v.49H-4.058v1.325Z" transform="translate(26.33 27.357)" fill="#fff"/>
  </g>
</svg>
