<svg id="Instagram" xmlns="http://www.w3.org/2000/svg" width="40" height="40" viewBox="0 0 40 40">
  <g id="pad" fill="none" stroke="#000" stroke-width="1" opacity="0.302">
    <circle cx="20" cy="20" r="20" stroke="none"/>
    <circle cx="20" cy="20" r="19.5" fill="none"/>
  </g>
  <path id="icon_Instagram" data-name="icon | Instagram" d="M270.626,799A5.625,5.625,0,0,1,265,793.375v-6.75A5.625,5.625,0,0,1,270.626,781h6.75A5.626,5.626,0,0,1,283,786.625v6.75A5.625,5.625,0,0,1,277.376,799Zm-3.938-12.375v6.75a3.942,3.942,0,0,0,3.938,3.938h6.75a3.942,3.942,0,0,0,3.938-3.937v-6.75a3.941,3.941,0,0,0-3.937-3.937h-6.75A3.941,3.941,0,0,0,266.687,786.625ZM269.5,790a4.5,4.5,0,1,1,4.5,4.5A4.5,4.5,0,0,1,269.5,790Zm1.688,0A2.813,2.813,0,1,0,274,787.189,2.816,2.816,0,0,0,271.188,790Zm7.052-4.84a.6.6,0,1,1,.6.6A.6.6,0,0,1,278.24,785.16Z" transform="translate(-254 -770)"/>
</svg>
