<svg id="LinkedIn" xmlns="http://www.w3.org/2000/svg" width="40" height="40" viewBox="0 0 40 40">
  <g id="pad" fill="none" stroke="#000" stroke-width="1" opacity="0.302">
    <circle cx="20" cy="20" r="20" stroke="none"/>
    <circle cx="20" cy="20" r="19.5" fill="none"/>
  </g>
  <path id="icon_LinkedIN" data-name="icon | LinkedIN" d="M279.005,799v-5.871c0-1.369.146-3.2-1.726-3.2-1.907,0-2.231,1.512-2.231,3.1V799H271V786.976h3.968v1.62h.036a3.889,3.889,0,0,1,3.528-1.944c3.78,0,4.464,2.484,4.464,5.724V799Zm-14-.009V787.008H269v11.986Zm5.961-12.018H271ZM265,782.994a2,2,0,0,1,4.008,0,2.017,2.017,0,0,1-2,1.994A2,2,0,0,1,265,782.994Z" transform="translate(-254 -770)"/>
</svg>
