<svg xmlns="http://www.w3.org/2000/svg" width="17.5" height="21.501" viewBox="0 0 17.5 21.501">
  <path id="location" d="M-1273.5,401h0a19.485,19.485,0,0,1-4-3.143,15.376,15.376,0,0,1-2.75-3.768A11.2,11.2,0,0,1-1281.5,389a8.009,8.009,0,0,1,8-8,8.009,8.009,0,0,1,8,8,11.2,11.2,0,0,1-1.25,5.089,15.376,15.376,0,0,1-2.75,3.768,19.487,19.487,0,0,1-4,3.143Zm0-15.059a3,3,0,0,0-3,3,3,3,0,0,0,3,3,3,3,0,0,0,3-3A3,3,0,0,0-1273.5,385.942Z" transform="translate(1282.25 -380.25)" fill="none" stroke="#000" stroke-linecap="round" stroke-linejoin="round" stroke-width="1.5"/>
</svg>
