<svg xmlns="http://www.w3.org/2000/svg" xmlns:xlink="http://www.w3.org/1999/xlink" width="27" height="30" viewBox="0 0 27 30">
  <defs>
    <linearGradient id="linear-gradient" x1="0.105" y1="-3.087" x2="0.105" y2="-4.097" gradientUnits="objectBoundingBox">
      <stop offset="0" stop-color="#7d7d7d"/>
      <stop offset="1" stop-color="#1a1a1a"/>
    </linearGradient>
    <linearGradient id="linear-gradient-2" x1="0.09" y1="-3.22" x2="0.09" y2="-4.23" xlink:href="#linear-gradient"/>
    <linearGradient id="linear-gradient-3" x1="-0.599" y1="-11.265" x2="-1.341" y2="-12.008" gradientUnits="objectBoundingBox">
      <stop offset="0" stop-color="#5f5f5f"/>
      <stop offset="1"/>
    </linearGradient>
    <linearGradient id="linear-gradient-4" x1="-0.927" y1="-12.274" x2="-1.233" y2="-12.581" xlink:href="#linear-gradient"/>
  </defs>
  <g id="MP3" transform="translate(0 0)">
    <g id="File">
      <path id="Path_177" data-name="Path 177" d="M42.119,450.4l-7.455-7.6H17.592a2.382,2.382,0,0,0-2.355,2.407v25.066a2.381,2.381,0,0,0,2.355,2.407H39.765a2.382,2.382,0,0,0,2.355-2.407S42.119,450.4,42.119,450.4Z" transform="translate(-15.178 -442.74)" fill="url(#linear-gradient)"/>
      <path id="Path_178" data-name="Path 178" d="M41.244,473.666H19.071a1.907,1.907,0,0,1-1.883-1.925V446.675a1.907,1.907,0,0,1,1.883-1.925H35.948l7.179,7.319v19.674a1.907,1.907,0,0,1-1.883,1.924Z" transform="translate(-16.657 -444.208)" fill="url(#linear-gradient-2)"/>
      <path id="Path_179" data-name="Path 179" d="M17.376,472V446.933a1.907,1.907,0,0,1,1.883-1.925c.162,0,16.688-.259,16.688-.259H19.07a1.907,1.907,0,0,0-1.883,1.925v25.066a1.932,1.932,0,0,0,.474,1.264A1.937,1.937,0,0,1,17.376,472Z" transform="translate(-16.657 -444.208)" fill="#999"/>
      <path id="Path_180" data-name="Path 180" d="M101.461,450.4l-7.455-7.6h-.053c-.128,1.476-.47,5.412-.47,5.412a2.692,2.692,0,0,0,2.662,2.721Z" transform="translate(-74.52 -442.74)" fill="url(#linear-gradient-3)"/>
      <path id="Path_181" data-name="Path 181" d="M95.647,442.8s0,5.194,0,5.193A2.382,2.382,0,0,0,98,450.4h5.1Z" transform="translate(-76.161 -442.74)" fill="url(#linear-gradient-4)"/>
      <path id="Path_182" data-name="Path 182" d="M17.407,472.556a2.441,2.441,0,0,1-2.414-2.467h0V445.023a2.441,2.441,0,0,1,2.414-2.467H34.5l7.473,7.618-.041.043.041-.043.017.017v19.9a2.441,2.441,0,0,1-2.414,2.467H17.407Zm-2.3-27.533v25.066a2.325,2.325,0,0,0,2.3,2.347H39.579a2.325,2.325,0,0,0,2.3-2.347h0V450.241l-7.421-7.565H17.407a2.327,2.327,0,0,0-2.3,2.347Z" transform="translate(-14.993 -442.556)" fill="#1a1a1a"/>
      <path id="Path_183" data-name="Path 183" d="M39.959,475.906v-2.345a.445.445,0,0,0-.125-.309.431.431,0,0,0-.3-.13H32.357a.429.429,0,0,0-.3.13.443.443,0,0,0-.126.309v7.608a1.64,1.64,0,1,1-1.639-1.676h.772a.438.438,0,0,0,0-.875h-.772a2.551,2.551,0,1,0,2.5,2.556.045.045,0,0,1,0,0V474H39.1v1.478H33.657a.439.439,0,0,0,0,.877H39.1v4.815h0a1.64,1.64,0,1,1-1.639-1.675h.951a.438.438,0,0,0,0-.875h-.951a2.551,2.551,0,1,0,2.5,2.551v-5.253S39.959,475.91,39.959,475.906Z" transform="translate(-24.7 -465.575)" fill="#fff"/>
    </g>
    <path id="MP3-2" data-name="MP3" d="M-12.686-1.107V-4.381h.875l.624,1.7q.033.094.074.24t.085.311q.044.166.082.323t.065.274H-11q.026-.114.065-.27t.081-.322q.043-.166.085-.312t.073-.243l.617-1.7h.875v3.274h-.582V-2.763q0-.105,0-.254t.008-.316q0-.168.009-.339t0-.325h.048q-.046.169-.1.348t-.1.347q-.051.168-.1.308t-.076.232L-10.7-1.107h-.492l-.617-1.657q-.033-.092-.077-.23t-.1-.3q-.052-.167-.1-.347l-.1-.354h.057q0,.145.007.315t.008.339q0,.169.007.321t0,.259v1.657Zm4.109,0V-4.381h1.23a1.316,1.316,0,0,1,.631.138.95.95,0,0,1,.391.38A1.132,1.132,0,0,1-6.19-3.3a1.126,1.126,0,0,1-.135.557.944.944,0,0,1-.4.38,1.345,1.345,0,0,1-.634.137h-.837v-.486h.771a.75.75,0,0,0,.358-.076A.493.493,0,0,0-6.853-3a.649.649,0,0,0,.069-.3.646.646,0,0,0-.069-.307.483.483,0,0,0-.211-.2.776.776,0,0,0-.359-.074H-7.99v2.782Zm3.988.046a1.454,1.454,0,0,1-.622-.125,1.025,1.025,0,0,1-.42-.344.9.9,0,0,1-.158-.5H-5.2a.464.464,0,0,0,.087.259.509.509,0,0,0,.216.168.782.782,0,0,0,.31.058.758.758,0,0,0,.318-.063.516.516,0,0,0,.215-.175.446.446,0,0,0,.078-.261.447.447,0,0,0-.08-.264.522.522,0,0,0-.23-.178.91.91,0,0,0-.358-.064h-.288v-.453h.288a.738.738,0,0,0,.305-.059.484.484,0,0,0,.205-.166.428.428,0,0,0,.074-.249.465.465,0,0,0-.065-.248.443.443,0,0,0-.182-.165.6.6,0,0,0-.276-.059.7.7,0,0,0-.287.057.5.5,0,0,0-.205.163.44.44,0,0,0-.081.253h-.56a.861.861,0,0,1,.154-.492,1.009,1.009,0,0,1,.405-.334,1.34,1.34,0,0,1,.579-.121,1.257,1.257,0,0,1,.569.122.958.958,0,0,1,.38.327.811.811,0,0,1,.136.458.679.679,0,0,1-.164.463.777.777,0,0,1-.432.247v.022a.9.9,0,0,1,.386.137.705.705,0,0,1,.242.268.789.789,0,0,1,.082.364.822.822,0,0,1-.156.493,1.054,1.054,0,0,1-.427.341A1.482,1.482,0,0,1-4.589-1.061Z" transform="translate(27.171 27.357)" fill="#fff"/>
  </g>
</svg>
