<svg xmlns="http://www.w3.org/2000/svg" xmlns:xlink="http://www.w3.org/1999/xlink" width="27" height="30" viewBox="0 0 27 30">
  <defs>
    <linearGradient id="linear-gradient" x1="0.105" y1="-3.087" x2="0.105" y2="-4.097" gradientUnits="objectBoundingBox">
      <stop offset="0" stop-color="#88e3fc"/>
      <stop offset="1" stop-color="#0fabdb"/>
    </linearGradient>
    <linearGradient id="linear-gradient-2" x1="0.09" y1="-3.22" x2="0.09" y2="-4.23" xlink:href="#linear-gradient"/>
    <linearGradient id="linear-gradient-3" x1="-0.6" y1="-11.265" x2="-1.341" y2="-12.008" gradientUnits="objectBoundingBox">
      <stop offset="0" stop-color="#6bcfeb"/>
      <stop offset="1" stop-color="#0092c6"/>
    </linearGradient>
    <linearGradient id="linear-gradient-4" x1="-1.006" y1="-12.353" x2="-1.253" y2="-12.6" xlink:href="#linear-gradient"/>
  </defs>
  <g id="MP4" transform="translate(0 0)">
    <g id="File">
      <path id="Path_184" data-name="Path 184" d="M355.6,450.4l-7.455-7.6H331.068a2.382,2.382,0,0,0-2.355,2.407v25.066a2.381,2.381,0,0,0,2.355,2.407h22.173a2.381,2.381,0,0,0,2.355-2.407S355.6,450.4,355.6,450.4Z" transform="translate(-328.654 -442.74)" fill="url(#linear-gradient)"/>
      <path id="Path_185" data-name="Path 185" d="M354.72,473.666H332.547a1.907,1.907,0,0,1-1.884-1.925V446.675a1.907,1.907,0,0,1,1.884-1.925h16.877l7.179,7.319v19.674a1.907,1.907,0,0,1-1.883,1.924Z" transform="translate(-330.133 -444.208)" fill="url(#linear-gradient-2)"/>
      <path id="Path_186" data-name="Path 186" d="M330.853,472V446.933a1.907,1.907,0,0,1,1.884-1.925c.162,0,16.689-.259,16.689-.259H332.548a1.907,1.907,0,0,0-1.884,1.925v25.066a1.932,1.932,0,0,0,.474,1.264A1.933,1.933,0,0,1,330.853,472Z" transform="translate(-330.134 -444.208)" fill="#abf6ff"/>
      <path id="Path_187" data-name="Path 187" d="M414.938,450.4l-7.455-7.6h-.053c-.128,1.476-.47,5.412-.47,5.412a2.692,2.692,0,0,0,2.661,2.721Z" transform="translate(-387.996 -442.74)" fill="url(#linear-gradient-3)"/>
      <path id="Path_188" data-name="Path 188" d="M409.124,442.8v5.193a2.381,2.381,0,0,0,2.355,2.407h5.1Z" transform="translate(-389.637 -442.74)" fill="url(#linear-gradient-4)"/>
      <path id="Path_189" data-name="Path 189" d="M330.882,472.556a2.441,2.441,0,0,1-2.414-2.467h0V445.023a2.441,2.441,0,0,1,2.414-2.467h17.1l7.473,7.618-.041.043.041-.043.017.017v19.9a2.441,2.441,0,0,1-2.414,2.467H330.882Zm-2.3-27.533v25.066a2.325,2.325,0,0,0,2.3,2.347h22.172a2.324,2.324,0,0,0,2.3-2.347h0V450.241l-7.422-7.565H330.882a2.327,2.327,0,0,0-2.3,2.347Z" transform="translate(-328.468 -442.556)" fill="#0fabdb"/>
      <path id="Path_190" data-name="Path 190" d="M395.259,479.725h-5.941a.384.384,0,0,0,0,.769h5.951a.719.719,0,0,1,.7.716.09.09,0,0,1,0,.011v4.59a.092.092,0,0,1,0,.011.719.719,0,0,1-.7.716h-5.951a.384.384,0,0,0,0,.769h5.941a1.481,1.481,0,0,0,1.465-1.5v-4.591A1.481,1.481,0,0,0,395.259,479.725Zm-6.01,6.2h.844a.384.384,0,0,0,0-.769h-.844a.384.384,0,0,0,0,.769Zm-.053-3.854h.845a.385.385,0,0,0,0-.769H389.2a.385.385,0,0,0,0,.769Zm2.272,0h.844a.385.385,0,0,0,0-.769h-.844a.385.385,0,0,0,0,.769Zm3.034,3.086h-.844a.384.384,0,0,0,0,.769h.844a.384.384,0,0,0,0-.769Zm-3.034.768h.844a.384.384,0,0,0,0-.769h-.844a.384.384,0,0,0,0,.769ZM394.5,481.3h-.846a.385.385,0,0,0,0,.769h.846a.385.385,0,0,0,0-.769Z" transform="translate(-374.239 -470.547)" fill="#fff"/>
      <path id="Path_191" data-name="Path 191" d="M351.582,474.56h-6.6a1.852,1.852,0,0,0-1.832,1.872v6.145a1.852,1.852,0,0,0,1.832,1.871h6.6a1.853,1.853,0,0,0,1.832-1.872v-6.144A1.852,1.852,0,0,0,351.582,474.56Zm1.161,8.016a1.176,1.176,0,0,1-1.161,1.186h-6.6a1.175,1.175,0,0,1-1.162-1.186v-6.144a1.177,1.177,0,0,1,1.162-1.188h6.6a1.177,1.177,0,0,1,1.161,1.188Zm-1.418-6.287h-6.081a.378.378,0,0,0-.375.383v4.55a.339.339,0,0,0,.335.344h.013a.329.329,0,0,0,.238-.1l2.587-2.646,3.11,2.593a.333.333,0,0,0,.356.045.346.346,0,0,0,.191-.31v-4.474A.377.377,0,0,0,351.326,476.289Zm-5.787.683h2.2a1.94,1.94,0,0,1-2.2,1.539v-1.54Zm5.49,3.453-1.53-1.275,1.53-.817Z" transform="translate(-339.607 -466.658)" fill="#fff"/>
    </g>
    <path id="MP4-2" data-name="MP4" d="M-12.867-1.091V-4.365h.875l.624,1.7q.033.094.074.24t.085.311q.044.166.082.323t.065.274h-.123q.026-.114.065-.27t.081-.322q.043-.166.085-.312t.073-.243l.617-1.7h.875v3.274h-.582V-2.748q0-.105,0-.254t.008-.316q0-.168.009-.339t0-.325H-9.9q-.046.169-.1.348t-.1.347q-.051.168-.1.308t-.076.232l-.611,1.657h-.492l-.617-1.657q-.033-.092-.077-.23t-.1-.3q-.052-.167-.1-.347l-.1-.354h.057q0,.145.007.315t.008.339q0,.169.007.321t0,.259v1.657Zm4.109,0V-4.365h1.23a1.316,1.316,0,0,1,.631.138.95.95,0,0,1,.391.38,1.132,1.132,0,0,1,.134.558,1.126,1.126,0,0,1-.135.557.944.944,0,0,1-.4.38,1.345,1.345,0,0,1-.634.137h-.837V-2.7H-7.6a.75.75,0,0,0,.358-.076.493.493,0,0,0,.21-.209.649.649,0,0,0,.069-.3A.646.646,0,0,0-7.035-3.6a.483.483,0,0,0-.211-.2A.776.776,0,0,0-7.6-3.873h-.567v2.782Zm2.777-.637v-.464L-4.57-4.365h.382v.648h-.229l-.969,1.488v.022h1.969v.479Zm1.578.637v-.778L-4.4-2.08V-4.365h.554v3.274Z" transform="translate(27.217 27.341)" fill="#fff"/>
  </g>
</svg>
