<svg xmlns="http://www.w3.org/2000/svg" xmlns:xlink="http://www.w3.org/1999/xlink" width="27" height="30" viewBox="0 0 27 30">
  <defs>
    <linearGradient id="linear-gradient" x1="0.105" y1="4.227" x2="0.105" y2="3.217" gradientUnits="objectBoundingBox">
      <stop offset="0" stop-color="#ffe241"/>
      <stop offset="0.223" stop-color="#fedd3b"/>
      <stop offset="0.508" stop-color="#fad02c"/>
      <stop offset="0.826" stop-color="#f4bb12"/>
      <stop offset="1" stop-color="#f0ac00"/>
    </linearGradient>
    <linearGradient id="linear-gradient-2" x1="0.09" y1="4.739" x2="0.09" y2="3.73" xlink:href="#linear-gradient"/>
    <linearGradient id="linear-gradient-3" x1="-0.599" y1="15.608" x2="-1.341" y2="14.865" gradientUnits="objectBoundingBox">
      <stop offset="0" stop-color="#eece1d"/>
      <stop offset="0.237" stop-color="#ecc81a"/>
      <stop offset="0.539" stop-color="#e8b912"/>
      <stop offset="0.876" stop-color="#e09f06"/>
      <stop offset="1" stop-color="#dd9300"/>
    </linearGradient>
    <linearGradient id="linear-gradient-4" x1="-0.916" y1="16.492" x2="-1.34" y2="16.067" xlink:href="#linear-gradient"/>
  </defs>
  <g id="PNG" transform="translate(0)">
    <g id="File">
      <path id="Path_12" data-name="Path 12" d="M42.119,7.844,34.664.244H17.592a2.381,2.381,0,0,0-2.355,2.407V27.717a2.381,2.381,0,0,0,2.355,2.407H39.764a2.381,2.381,0,0,0,2.355-2.407S42.119,7.844,42.119,7.844Z" transform="translate(-15.179 -0.184)" fill="url(#linear-gradient)"/>
      <path id="Path_13" data-name="Path 13" d="M41.244,28.7H19.071a1.907,1.907,0,0,1-1.883-1.924V4.119a1.907,1.907,0,0,1,1.883-1.925H35.948l7.179,7.319V26.779A1.907,1.907,0,0,1,41.244,28.7Z" transform="translate(-16.658 -1.652)" fill="url(#linear-gradient-2)"/>
      <path id="Path_14" data-name="Path 14" d="M17.376,29.443V4.377a1.907,1.907,0,0,1,1.883-1.925c.162,0,16.688-.258,16.688-.258H19.07A1.907,1.907,0,0,0,17.187,4.12V29.186a1.935,1.935,0,0,0,.474,1.264A1.94,1.94,0,0,1,17.376,29.443Z" transform="translate(-16.657 -1.652)" fill="#fffae0"/>
      <path id="Path_15" data-name="Path 15" d="M101.461,7.844,94.006.244h-.053c-.128,1.476-.47,5.412-.47,5.412a2.692,2.692,0,0,0,2.662,2.72Z" transform="translate(-74.52 -0.184)" fill="url(#linear-gradient-3)"/>
      <path id="Path_16" data-name="Path 16" d="M95.647.244s0,5.193,0,5.193A2.381,2.381,0,0,0,98,7.844h5.1Z" transform="translate(-76.161 -0.184)" fill="url(#linear-gradient-4)"/>
      <path id="Path_17" data-name="Path 17" d="M19.071,2.195a1.907,1.907,0,0,0-1.883,1.925V18.777l.189-.193V4.377A1.907,1.907,0,0,1,19.26,2.452c.121,0,9.464-.146,14.115-.218l.039-.04Z" transform="translate(-16.657 -1.652)" fill="#fffae0"/>
      <path id="Path_18" data-name="Path 18" d="M17.407,30a2.441,2.441,0,0,1-2.414-2.467h0V2.467A2.441,2.441,0,0,1,17.407,0H34.5l7.473,7.618-.041.043.041-.043.017.018v19.9A2.441,2.441,0,0,1,39.579,30H17.407ZM15.11,2.467V27.533a2.325,2.325,0,0,0,2.3,2.347H39.579a2.324,2.324,0,0,0,2.3-2.347h0V7.685L34.454.12H17.407a2.326,2.326,0,0,0-2.3,2.347Z" transform="translate(-14.993)" fill="#f0ac00"/>
      <path id="Path_19" data-name="Path 19" d="M41.983,25.447H33.928a2.261,2.261,0,0,0-2.236,2.286v7.5a2.262,2.262,0,0,0,2.237,2.285h8.054a2.263,2.263,0,0,0,2.236-2.287v-7.5A2.261,2.261,0,0,0,41.983,25.447ZM43.4,35.236a1.436,1.436,0,0,1-1.418,1.449H33.928a1.434,1.434,0,0,1-1.418-1.449v-7.5a1.436,1.436,0,0,1,1.418-1.45h8.054a1.437,1.437,0,0,1,1.418,1.45v7.5Zm-1.731-7.678H34.243a.462.462,0,0,0-.458.467v5.557a.414.414,0,0,0,.409.419h.015a.4.4,0,0,0,.292-.122l3.159-3.23,3.8,3.166a.4.4,0,0,0,.435.054.42.42,0,0,0,.234-.378V28.025A.46.46,0,0,0,41.669,27.558Zm-7.066.835h2.685A2.406,2.406,0,0,1,34.956,30.3a2.437,2.437,0,0,1-.353-.027v-1.88Zm6.7,4.216L39.44,31.053l1.868-1Z" transform="translate(-27.656 -19.164)" fill="#fff"/>
    </g>
    <path id="PNG-2" data-name="PNG" d="M-12.4-1.107V-4.381h1.23a1.316,1.316,0,0,1,.631.138.95.95,0,0,1,.391.38,1.132,1.132,0,0,1,.134.558,1.126,1.126,0,0,1-.135.557.944.944,0,0,1-.4.38,1.345,1.345,0,0,1-.634.137h-.837v-.486h.771a.75.75,0,0,0,.358-.076A.493.493,0,0,0-10.675-3a.649.649,0,0,0,.069-.3.646.646,0,0,0-.069-.307.483.483,0,0,0-.211-.2.776.776,0,0,0-.359-.074h-.567v2.782Zm2.883,0V-4.381h.655l1.136,1.808q.066.1.144.241t.163.305q.085.168.166.364l-.066.033Q-7.334-1.805-7.344-2t-.015-.365q-.005-.174-.005-.288V-4.381h.593v3.274h-.657L-8.452-2.735q-.088-.141-.175-.291t-.188-.342l-.237-.45.083-.018q.015.24.025.453T-8.928-3q.005.166.005.267v1.63Zm4.792.046a1.505,1.505,0,0,1-.794-.207,1.416,1.416,0,0,1-.534-.583,1.932,1.932,0,0,1-.192-.889,1.933,1.933,0,0,1,.2-.9,1.424,1.424,0,0,1,.537-.581,1.476,1.476,0,0,1,.771-.2,1.565,1.565,0,0,1,.506.08,1.38,1.38,0,0,1,.421.227,1.264,1.264,0,0,1,.3.348,1.234,1.234,0,0,1,.156.445h-.6a.848.848,0,0,0-.107-.24.725.725,0,0,0-.169-.181.734.734,0,0,0-.226-.115A.927.927,0,0,0-4.73-3.9a.857.857,0,0,0-.479.136.91.91,0,0,0-.327.394,1.5,1.5,0,0,0-.119.627,1.5,1.5,0,0,0,.118.625.9.9,0,0,0,.328.4.878.878,0,0,0,.49.137.925.925,0,0,0,.435-.1A.7.7,0,0,0-4-1.957a.824.824,0,0,0,.1-.417l.138.018h-.9v-.459h1.327v.393a1.4,1.4,0,0,1-.18.722,1.233,1.233,0,0,1-.5.474A1.519,1.519,0,0,1-4.723-1.061Z" transform="translate(27.121 27.357)" fill="#fff"/>
  </g>
</svg>
