<svg xmlns="http://www.w3.org/2000/svg" width="21.5" height="21.5" viewBox="0 0 21.5 21.5">
  <path id="print" d="M7.133,14.126q-.4.046-.8.1m.8-.1a51.026,51.026,0,0,1,11.733,0m-11.733,0L6.711,18.4m12.156-4.278q.4.046.8.1m-.8-.1.422,4.278m0,0,.254,2.588a1.1,1.1,0,0,1-.322.883,1.3,1.3,0,0,1-.923.376H7.7a1.194,1.194,0,0,1-1.244-1.258L6.711,18.4m12.576,0H20.5A2.41,2.41,0,0,0,23,16.1V9.641A2.3,2.3,0,0,0,20.959,7.41q-1.06-.146-2.126-.253M6.711,18.4H5.5A2.41,2.41,0,0,1,3,16.1V9.641A2.3,2.3,0,0,1,5.041,7.41q1.06-.146,2.126-.253m11.667,0a58.4,58.4,0,0,0-11.667,0m11.667,0V3.4a1.205,1.205,0,0,0-1.25-1.154H8.417A1.205,1.205,0,0,0,7.167,3.4V7.157m12.5,3.555h.009v.008h-.009Zm-3.333,0h.009v.008h-.009Z" transform="translate(-2.25 -1.5)" fill="none" stroke="#000" stroke-linecap="round" stroke-linejoin="round" stroke-width="1.5"/>
</svg>
