<svg xmlns="http://www.w3.org/2000/svg" width="21.574" height="17.519" viewBox="0 0 21.574 17.519">
  <path id="share" d="M264.349,797.969h-.022a.219.219,0,0,1-.191-.187,9.937,9.937,0,0,1-.135-1.593,10.313,10.313,0,0,1,10.232-10.144v-3.338a.727.727,0,0,1,1.139-.609l8.311,6.231a.741.741,0,0,1,.2,1.012.714.714,0,0,1-.2.2l-8.294,6.231a.719.719,0,0,1-.765.045.728.728,0,0,1-.382-.65v-3.08c-4.621.066-8.32,2.226-9.685,5.715A.217.217,0,0,1,264.349,797.969Z" transform="translate(-263.252 -781.2)" fill="none" stroke="#fff" stroke-linecap="round" stroke-width="1.5"/>
</svg>
