<svg id="TikTok" xmlns="http://www.w3.org/2000/svg" width="40" height="40" viewBox="0 0 40 40">
  <circle id="pad" cx="20" cy="20" r="20" fill="#000"/>
  <path id="icon_TikTok_cyan" d="M27.3,15.87a5.54,5.54,0,0,1-3.33-1.12,5.57,5.57,0,0,1-2.22-3.65H18.55V23.38a3.37,3.37,0,1,1-2.36-3.22V16.58a6.68,6.68,0,1,0,5.57,6.6V17.43a8.79,8.79,0,0,0,5.54,1.92Z" fill="#25F4EE" opacity="0.9"/>
  <path id="icon_TikTok_red" d="M25.3,14.87a5.54,5.54,0,0,1-3.33-1.12,5.57,5.57,0,0,1-2.22-3.65H16.55V22.38a3.37,3.37,0,1,1-2.36-3.22V15.58a6.68,6.68,0,1,0,5.57,6.6V16.43a8.79,8.79,0,0,0,5.54,1.92Z" fill="#FE2C55" opacity="0.9"/>
  <path id="icon_TikTok_white" d="M26.3,15.37a5.54,5.54,0,0,1-3.33-1.12,5.57,5.57,0,0,1-2.22-3.65H17.55V22.88a3.37,3.37,0,1,1-2.36-3.22V16.08a6.68,6.68,0,1,0,5.57,6.6V16.93a8.79,8.79,0,0,0,5.54,1.92Z" fill="#fff"/>
</svg>
