<svg xmlns="http://www.w3.org/2000/svg" width="19.723" height="21.5" viewBox="0 0 19.723 21.5">
  <path id="trash" d="M15.739,9.173,15.362,18.4m-5.223,0L9.761,9.173M20.635,5.881c.373.053.744.11,1.115.17m-1.115-.169L19.47,20.119a2.4,2.4,0,0,1-2.448,2.13H8.478a2.4,2.4,0,0,1-2.448-2.13L4.865,5.881m15.77,0q-1.889-.268-3.794-.407M3.75,6.05c.371-.061.742-.117,1.115-.169m0,0q1.889-.268,3.794-.407m8.182,0V4.534a2.3,2.3,0,0,0-2.28-2.257q-1.81-.054-3.622,0a2.3,2.3,0,0,0-2.28,2.257v.939m8.182,0a56.462,56.462,0,0,0-8.182,0" transform="translate(-2.889 -1.499)" fill="none" stroke="#fff" stroke-linecap="round" stroke-linejoin="round" stroke-width="1.5"/>
</svg>
