<svg xmlns="http://www.w3.org/2000/svg" xmlns:xlink="http://www.w3.org/1999/xlink" width="27" height="30" viewBox="0 0 27 30">
  <defs>
    <linearGradient id="linear-gradient" x1="0.105" y1="-3.087" x2="0.105" y2="-4.097" gradientUnits="objectBoundingBox">
      <stop offset="0" stop-color="#aa35f0"/>
      <stop offset="0.286" stop-color="#9237c8"/>
      <stop offset="1" stop-color="#593d68"/>
    </linearGradient>
    <linearGradient id="linear-gradient-2" x1="0.09" y1="-3.22" x2="0.09" y2="-4.23" xlink:href="#linear-gradient"/>
    <linearGradient id="linear-gradient-3" x1="-0.6" y1="-11.265" x2="-1.341" y2="-12.008" gradientUnits="objectBoundingBox">
      <stop offset="0" stop-color="#9110dd"/>
      <stop offset="0.347" stop-color="#7113a8"/>
      <stop offset="1" stop-color="#381948"/>
    </linearGradient>
    <linearGradient id="linear-gradient-4" x1="-0.924" y1="-12.271" x2="-1.405" y2="-12.753" xlink:href="#linear-gradient"/>
  </defs>
  <g id="WAV" transform="translate(0 0)">
    <g id="Files">
      <path id="Path_168" data-name="Path 168" d="M199.906,450.4l-7.455-7.6H175.379a2.382,2.382,0,0,0-2.355,2.407v25.066a2.382,2.382,0,0,0,2.355,2.407h22.172a2.382,2.382,0,0,0,2.355-2.407S199.906,450.4,199.906,450.4Z" transform="translate(-172.965 -442.74)" fill="url(#linear-gradient)"/>
      <path id="Path_169" data-name="Path 169" d="M199.03,473.666H176.857a1.907,1.907,0,0,1-1.883-1.925V446.675a1.907,1.907,0,0,1,1.883-1.925h16.877l7.179,7.319v19.674a1.907,1.907,0,0,1-1.883,1.924Z" transform="translate(-174.443 -444.208)" fill="url(#linear-gradient-2)"/>
      <path id="Path_170" data-name="Path 170" d="M175.163,472V446.933a1.907,1.907,0,0,1,1.883-1.925c.162,0,16.688-.259,16.688-.259H176.857a1.907,1.907,0,0,0-1.883,1.925v25.066a1.932,1.932,0,0,0,.474,1.264A1.935,1.935,0,0,1,175.163,472Z" transform="translate(-174.443 -444.208)" fill="#e6dced"/>
      <path id="Path_171" data-name="Path 171" d="M259.248,450.4l-7.455-7.6h-.053c-.128,1.476-.47,5.412-.47,5.412a2.692,2.692,0,0,0,2.662,2.721Z" transform="translate(-232.307 -442.74)" fill="url(#linear-gradient-3)"/>
      <path id="Path_172" data-name="Path 172" d="M253.434,442.8s0,5.194,0,5.193a2.382,2.382,0,0,0,2.355,2.407h5.1Z" transform="translate(-233.948 -442.74)" fill="url(#linear-gradient-4)"/>
      <path id="Path_173" data-name="Path 173" d="M175.193,472.556a2.441,2.441,0,0,1-2.414-2.467h0V445.023a2.441,2.441,0,0,1,2.414-2.467h17.1l7.473,7.618-.041.043.041-.043.017.017v19.9a2.441,2.441,0,0,1-2.414,2.467H175.193Zm-2.3-27.533v25.066a2.325,2.325,0,0,0,2.3,2.347h22.172a2.325,2.325,0,0,0,2.3-2.347h0V450.241l-7.421-7.565H175.193a2.327,2.327,0,0,0-2.3,2.347Z" transform="translate(-172.779 -442.556)" fill="#593d68"/>
      <path id="Path_174" data-name="Path 174" d="M251.268,491.55a.239.239,0,0,1-.236-.241h0a.239.239,0,0,1,.236-.241h3.9a.239.239,0,0,1,.236.241h0a.239.239,0,0,1-.236.241h-3.9Z" transform="translate(-232.126 -479.09)" fill="#fff"/>
      <path id="Path_175" data-name="Path 175" d="M182.591,491.465a.239.239,0,0,1-.236-.241h0a.239.239,0,0,1,.236-.241h4.8a.238.238,0,0,1,.235.241h0a.238.238,0,0,1-.235.241h-4.8Z" transform="translate(-180.042 -479.026)" fill="#fff"/>
      <path id="Path_176" data-name="Path 176" d="M207.245,479.4l-.893-7.773-.295,5.48a.476.476,0,0,1-.452.454h0a.475.475,0,0,1-.484-.419h0l-.8-6.288-.782,4.059a.473.473,0,0,1-.47.389h0a.474.474,0,0,1-.456-.406h0l-.446-2.888a.465.465,0,0,1-.489.136h0a.484.484,0,0,1-.31-.6h0l.515-1.687a.471.471,0,0,1,.483-.337h0a.474.474,0,0,1,.431.4h0l.331,2.14.826-4.287a.474.474,0,0,1,.477-.388h0a.478.478,0,0,1,.453.419h0l.513,4.041.315-5.852a.477.477,0,0,1,.455-.456h0a.475.475,0,0,1,.482.425h0l.977,8.5.681-8.594a.474.474,0,0,1,.46-.441h0a.473.473,0,0,1,.477.423h0l.8,6.765.477-4.63a.472.472,0,0,1,.446-.429h0a.47.47,0,0,1,.483.386h0l.715,3.678.228-1.8a.478.478,0,0,1,.4-.414h0a.469.469,0,0,1,.5.277h0l.791,1.779a.485.485,0,0,1-.234.638h0a.467.467,0,0,1-.624-.24h0l-.106-.241-.384,3.04a.475.475,0,0,1-.451.419h0a.473.473,0,0,1-.478-.386h0l-.671-3.453-.589,5.713a.474.474,0,0,1-.464.431h0a.474.474,0,0,1-.471-.425h0l-.738-6.25-.686,8.669a.477.477,0,0,1-.461.443h-.01a.477.477,0,0,1-.466-.426Z" transform="translate(-194.445 -459.786)" fill="#fff"/>
    </g>
    <path id="WAV-2" data-name="WAV" d="M-12.787-1.091l-.883-3.274h.626l.426,1.747q.046.189.085.393t.075.41l.071.405h-.1l.076-.405q.038-.205.08-.41t.088-.393l.444-1.747h.622l.442,1.747q.048.189.089.393t.08.41q.04.205.077.405h-.1q.037-.2.074-.405t.077-.41q.041-.2.082-.393l.426-1.747H-9.3l-.888,3.274h-.668l-.481-1.826q-.064-.244-.113-.526t-.107-.6h.141q-.059.31-.1.589t-.113.538l-.481,1.826Zm3.355,0,1.147-3.274h.743l1.167,3.274h-.642L-7.6-2.8q-.086-.266-.179-.592t-.208-.75h.132q-.112.426-.2.755t-.171.588l-.569,1.705Zm.67-.8V-2.37h1.714V-1.9Zm3.368.8L-6.56-4.365h.639l.582,1.705q.081.255.177.584t.21.747h-.134q.112-.422.2-.749t.171-.582l.565-1.705h.637L-4.655-1.091Z" transform="translate(27.417 27.341)" fill="#fff"/>
  </g>
</svg>
