<svg xmlns="http://www.w3.org/2000/svg" xmlns:xlink="http://www.w3.org/1999/xlink" width="27" height="30" viewBox="0 0 27 30">
  <defs>
    <linearGradient id="linear-gradient" x1="0.105" y1="-0.823" x2="0.105" y2="-1.832" gradientUnits="objectBoundingBox">
      <stop offset="0" stop-color="#c5e115"/>
      <stop offset="1" stop-color="#83a70e"/>
    </linearGradient>
    <linearGradient id="linear-gradient-2" x1="0.09" y1="-0.88" x2="0.09" y2="-1.889" xlink:href="#linear-gradient"/>
    <linearGradient id="linear-gradient-3" x1="-0.6" y1="-2.944" x2="-1.341" y2="-3.687" gradientUnits="objectBoundingBox">
      <stop offset="0" stop-color="#aecd00"/>
      <stop offset="1" stop-color="#668d00"/>
    </linearGradient>
    <linearGradient id="linear-gradient-4" x1="-0.958" y1="-3.401" x2="-1.467" y2="-3.911" xlink:href="#linear-gradient"/>
  </defs>
  <g id="XLSX" transform="translate(0 0)">
    <g id="File">
      <path id="Path_131" data-name="Path 131" d="M666.474,313.353l-7.455-7.6H641.948a2.381,2.381,0,0,0-2.355,2.407v25.066a2.381,2.381,0,0,0,2.355,2.407H664.12a2.382,2.382,0,0,0,2.356-2.407Z" transform="translate(-639.534 -305.693)" fill="url(#linear-gradient)"/>
      <path id="Path_132" data-name="Path 132" d="M665.6,336.619H643.426a1.907,1.907,0,0,1-1.884-1.925V309.628a1.908,1.908,0,0,1,1.884-1.925H660.3l7.179,7.319v19.674a1.907,1.907,0,0,1-1.884,1.924Z" transform="translate(-641.012 -307.161)" fill="url(#linear-gradient-2)"/>
      <path id="Path_133" data-name="Path 133" d="M641.731,334.952V309.886a1.907,1.907,0,0,1,1.884-1.925c.162,0,16.688-.259,16.688-.259H643.426a1.908,1.908,0,0,0-1.884,1.925v25.066a1.933,1.933,0,0,0,.474,1.263A1.931,1.931,0,0,1,641.731,334.952Z" transform="translate(-641.011 -307.161)" fill="#f3f5d8"/>
      <path id="Path_134" data-name="Path 134" d="M725.817,313.353l-7.455-7.6h-.053c-.128,1.476-.469,5.412-.47,5.412a2.692,2.692,0,0,0,2.662,2.721Z" transform="translate(-698.876 -305.693)" fill="url(#linear-gradient-3)"/>
      <path id="Path_135" data-name="Path 135" d="M720,305.753v5.193a2.381,2.381,0,0,0,2.355,2.407h5.1Z" transform="translate(-700.516 -305.693)" fill="url(#linear-gradient-4)"/>
      <path id="Path_136" data-name="Path 136" d="M641.76,335.509a2.441,2.441,0,0,1-2.414-2.467h0V307.976a2.441,2.441,0,0,1,2.414-2.467h17.1l7.473,7.618-.041.043.041-.043.017.017v19.9a2.441,2.441,0,0,1-2.414,2.467H641.76Zm-2.3-27.533v25.066a2.326,2.326,0,0,0,2.3,2.347h22.172a2.325,2.325,0,0,0,2.3-2.347h0V313.194l-7.421-7.565H641.76a2.327,2.327,0,0,0-2.3,2.347Z" transform="translate(-639.346 -305.509)" fill="#83a70e"/>
      <path id="Path_137" data-name="Path 137" d="M651.3,329.132v13h14.6v-13Zm.471,4.655h3.061v1.6h-3.061Zm3.532,0h3.063v1.6H655.3Zm-3.532,2.084h3.061v1.6h-3.061Zm3.532,0h3.063v1.6H655.3Zm3.533,0H661.9v1.6h-3.062Zm0-.481v-1.6H661.9v1.6Zm0-2.084V331.7H661.9v1.609Zm-.471-1.609v1.609H655.3V331.7Zm-3.533,1.609h-3.062V331.7h3.062Zm-3.061,4.649h3.061v1.609h-3.061Zm3.532,0h3.063v1.609H655.3Zm3.062,2.091v1.6H655.3v-1.6Zm.471,0H661.9v1.6h-3.062Zm0-.482v-1.609H661.9v1.609Zm3.532-1.609h3.061v1.609h-3.061Zm3.061-.481h-3.061v-1.6h3.061Zm-3.061-2.083v-1.6h3.061v1.6Zm0-2.084V331.7h3.061v1.609Zm-10.6,6.74h3.061v1.6h-3.061Zm10.6,1.6v-1.6h3.061v1.6Z" transform="translate(-648.41 -323.299)" fill="#fff"/>
      <rect id="Rectangle_32" data-name="Rectangle 32" width="3.061" height="1.603" transform="translate(13.956 6.314)" fill="#e6eab0"/>
      <rect id="Rectangle_33" data-name="Rectangle 33" width="3.061" height="1.603" transform="translate(10.424 6.314)" fill="#e6eab0"/>
      <rect id="Rectangle_34" data-name="Rectangle 34" width="3.062" height="1.603" transform="translate(6.891 6.314)" fill="#e6eab0"/>
      <rect id="Rectangle_35" data-name="Rectangle 35" width="3.061" height="1.603" transform="translate(3.358 6.314)" fill="#e6eab0"/>
    </g>
    <path id="XLSX-2" data-name="XLSX" d="M-15.577-1.107-14.25-3v.442l-1.235-1.824h.677l.4.6q.1.143.163.259t.123.226q.057.11.125.233h-.143q.07-.123.127-.232t.125-.226q.068-.118.163-.26l.406-.6h.659l-1.217,1.793V-3.01l1.3,1.9h-.686l-.5-.736q-.086-.127-.145-.224t-.11-.188l-.114-.2h.1l-.113.2q-.052.091-.112.188t-.148.226l-.505.736Zm3.417,0V-4.381h.587V-1.6h1.461v.5Zm3.687.051a1.681,1.681,0,0,1-.668-.122.989.989,0,0,1-.441-.354,1.041,1.041,0,0,1-.168-.561h.576a.546.546,0,0,0,.1.3.554.554,0,0,0,.246.18.952.952,0,0,0,.348.06.937.937,0,0,0,.344-.058A.538.538,0,0,0-7.9-1.779a.391.391,0,0,0,.085-.248.31.31,0,0,0-.071-.209.568.568,0,0,0-.2-.143,1.923,1.923,0,0,0-.32-.105l-.367-.092A1.462,1.462,0,0,1-9.436-2.9a.734.734,0,0,1-.231-.562.852.852,0,0,1,.155-.508,1.018,1.018,0,0,1,.426-.338,1.5,1.5,0,0,1,.616-.121,1.458,1.458,0,0,1,.617.122.994.994,0,0,1,.413.339.905.905,0,0,1,.156.5h-.565a.463.463,0,0,0-.19-.345.724.724,0,0,0-.438-.123.811.811,0,0,0-.318.057A.5.5,0,0,0-9-3.718a.364.364,0,0,0-.074.225A.308.308,0,0,0-9-3.275a.6.6,0,0,0,.209.141,1.729,1.729,0,0,0,.279.09l.312.079a2.239,2.239,0,0,1,.372.121,1.234,1.234,0,0,1,.309.187.81.81,0,0,1,.21.266.806.806,0,0,1,.076.36.893.893,0,0,1-.148.512.967.967,0,0,1-.426.342A1.659,1.659,0,0,1-8.473-1.056Zm1.479-.051L-5.667-3v.442L-6.9-4.381h.677l.4.6q.1.143.163.259t.123.226q.057.11.125.233H-5.56q.07-.123.127-.232t.125-.226q.068-.118.163-.26l.406-.6h.659L-5.3-2.588V-3.01l1.3,1.9h-.686l-.5-.736q-.086-.127-.145-.224t-.11-.188l-.114-.2h.1l-.113.2q-.052.091-.112.188t-.148.226l-.505.736Z" transform="translate(27.894 27.357)" fill="#fff"/>
  </g>
</svg>
